<svg xmlns="http://www.w3.org/2000/svg" xml:space="preserve" version="1.1" viewBox="0 0 691 510" width="691" height="510">
    <path d="m514.6 118.1-22-22-15.7 16.8-23.1 23.6c-6.8 6.8-14.1 11-22.5 11-9.8.3-18-7.5-18.3-17.3.1-3.7 1.2-7.3 3.1-10.5l-21.5-23.6c-10.5 10-16.8 20.4-16.8 35.6 0 23.6 19.4 47.2 52.4 47.2 18.3 0 33-8.4 44.5-19.9l16.2 17.3 23.6-23.1-16.8-17.8 16.9-17.3z" fill="#ffcc19"/>
  <path d="M431.9 61.2c-8 0-14.6-6.5-14.6-14.6 0-8 6.5-14.6 14.6-14.6s14.6 6.5 14.6 14.6-6.6 14.6-14.6 14.6m44.3-14.5c0-24.5-19.8-44.3-44.3-44.3s-44.3 19.8-44.3 44.3c0 11.6 4.5 22.2 11.9 30.2l32.4 34.8 32.4-34.8c7.4-8 11.9-18.6 11.9-30.2" fill="#ffcc19"/>
  <path d="M219.9 47.8c12.3 0 22.7-10.3 22.7-22.6S232.2 2.6 219.9 2.6c-12.3 0-22.7 10.3-22.7 22.6s10.4 22.6 22.7 22.6M154.3 55.3c-18.4 0-33.6 10.6-40.4 20.7-4.8-13.7-16.5-20.7-33.1-20.7-18.4 0-33.4 10.4-38.5 17.1V58.2H5v116.3h37.3V99.3C46.2 94.5 53.2 88 63.1 88c11.4 0 15.5 6.7 15.5 15.6v70.8h37.3V99.3c3.6-4.8 10.9-11.3 21-11.3 11.1 0 15.5 6.7 15.5 15.6v70.8h37V90.2c0-23.9-13.5-34.9-35.1-34.9M201.3 58.2h37.3v116.3h-37.3z" fill="#1b1c1c"/>
  <g>
    <path d="m372.7 174.4-36.4-55.6c-1.6-2.5-1.6-5.7 0-8.3l33.8-52.4h-40l-19.4 31.5L291 58.2h-40l34 52.4c1.6 2.5 1.6 5.8 0 8.3l-36.4 55.6h39.8l22.3-35.1 22 35.1h40zM153.5 216.1c-18.4 0-33.6 10.6-40.4 20.7-4.8-13.7-16.5-20.7-33.1-20.7-18.4 0-33.4 10.4-38.5 17.1V219H4.3v116.3h37.3v-75.1c3.9-4.8 10.9-11.3 20.8-11.3 11.4 0 15.5 6.7 15.5 15.6v70.8h37.3v-75.1c3.6-4.8 10.9-11.3 21-11.3 11.1 0 15.5 6.7 15.5 15.6v70.8h37V251c-.1-23.8-13.6-34.9-35.2-34.9M254.7 216.1c-17.9 0-38 5.3-53 18.1l13.3 23.3c9.4-7.9 21.5-12.3 33.1-12.3 15 0 23.7 6.7 23.7 16.8v14c-7-8.7-20.8-13.5-36.3-13.5-17.9 0-40.2 9.1-40.2 37.3 0 26.2 22.3 38.3 40.2 38.3 15 0 29-5.8 36.3-14.4v11.6h37.3v-72.7c0-36.1-26.4-46.5-54.4-46.5m17.1 84.8c0 3.7-2 7.2-5.2 9.1-4.3 2.5-10.1 3.8-15.6 3.8-9.9 0-18.6-4.3-18.6-13.5 0-9.1 8.7-13.5 18.6-13.5 8.2 0 16.9 2.9 20.8 8.2v5.9zM383.2 305.4c-6.5 0-10.4-5.1-10.4-11.8v-42.4h23.7V219h-23.7v-31.8h-37v24.3c0 4.1-3.4 7.5-7.5 7.5h-11.8v32.3h19.4V304c0 22.4 12.8 34.2 36.5 34.2 13.8 0 23-3.4 27.6-7.7l-7.3-27.9c-1.3 1.4-5.4 2.8-9.5 2.8M466.1 248.9c9.9 0 17.4 4.3 22 11.1l24.2-22.4c-7-10.3-22.7-21.4-47.9-21.4-36.5 0-63.9 24.6-63.9 60.9 0 36.6 27.3 61.1 63.9 61.1 25.2 0 40.9-11.3 47.9-21.4l-24.2-22.6c-4.6 6.5-12.1 11.3-22 11.3-15.5 0-27.3-10.8-27.3-28.4 0-17.6 11.9-28.2 27.3-28.2M597.1 216.1c-19.6 0-33.4 8.9-40.4 17.1v-58.5h-37.3v160.5h37.3v-75.1c4.4-5.3 11.6-11.3 22.5-11.3 11.9 0 19.4 4.6 19.4 18.8v67.6h37.3v-82.8c-.1-21.4-12.2-36.3-38.8-36.3M665.6 292.9c-12.3 0-22.7 10.4-22.7 22.6 0 12.3 10.4 22.6 22.7 22.6 12.3 0 22.7-10.3 22.7-22.6 0-12.2-10.4-22.6-22.7-22.6" fill="#1b1c1c"/>
  </g>
  <g>
    <path d="M104.6 427.6c0-5-4-12.2-14.5-12.2-9 0-15.6 7.4-16.8 13.4h31.1c.2-.4.2-.9.2-1.2m-13.4-31.4c19 0 34.5 12.4 34.5 35.1 0 4.8-.9 10.8-1.6 13.5H71v1c0 3.9 5.6 12.9 18 12.9 6.2 0 13.5-1.8 17.6-4.8l7.3 16.4c-7.3 5.2-17.6 7.6-26.7 7.6-24 0-40-12.9-40-35.3 0-25 18.3-46.4 44-46.4M134.2 453.9l7.3-34.3h-12.4l4.7-21.4h12.4l4.5-21.3h23.9l-4.5 21.3h15.2l-4.7 21.4h-15.2l-5.6 26.4c-.3 1.3-.5 2.7-.5 3.5 0 3.9 2.3 6.4 7.2 6.4 1.7 0 3.9-.6 4.7-1.3l.3 19.8c-2.8 2.3-7.9 3.4-12.9 3.4-14.6 0-24.9-5.8-24.9-18.4 0-.9.2-3.4.5-5.5M202.8 448.1c4.7 5.2 16.5 11.8 27.1 11.8 4.8 0 7.9-2.6 7.9-6 0-3.5-5.4-5.8-12.4-8.1-10.7-3.5-24.9-8.7-24.9-22.2 0-14 11.4-27.4 32.2-27.4 12.6 0 25.2 4.7 33.4 12.6l-11.4 15.1c-3.7-4.4-13.1-9.5-22.1-9.5-5.6 0-8.4 2.4-8.4 5.5s4.5 5 11.4 7.1c10.9 3.4 26.1 8.2 26.1 22.9 0 15.6-12.8 28-34.1 28-13.8 0-28-5-37.2-14.2l12.4-15.6zM363.5 426c-3.3-5.2-8.7-7.9-15.9-7.9-10 0-17.6 8.1-17.6 20.3 0 8.4 6.2 14.3 15.1 14.3 5.4 0 10.6-3.1 14.2-7.3l4.2-19.4zm-52.4 51.4c4.8 6.4 14.8 9.8 23.6 9.8 8.2 0 16.3-3.5 19.6-18.2l1.2-5.6c-5.6 7.1-13.4 11.3-21.8 11.3-14.8 0-28.5-8.7-28.5-31.4 0-23.2 14.3-47.1 39-47.1 8.4 0 17.6 4 23 11.1l2.2-9.2h23.8L378.1 469c-6.7 31.6-26.8 38.5-42.9 38.5-15.1 0-28.2-3.9-37.6-13.7l13.5-16.4zM35.2 456.3c-4.8 0-7.2-2.6-7.2-6.4 0-.8.2-2.3.5-3.5l2.7-12.9 14.4-66.7H21.7L7.3 433.4l-4.4 20.8c-.3 2.1-.5 4.7-.5 5.6 0 12.6 10.3 18.4 24.9 18.4 5 0 10.1-1.1 12.9-3.4l-.4-19.8c-.7.7-2.9 1.3-4.6 1.3M434.4 430.4c-3.9 0-7.1 3.1-7.3 6.9-.2 3.8 2.8 6.9 6.6 6.9 3.9 0 7.1-3.1 7.3-6.9.2-3.8-2.8-6.9-6.6-6.9" fill="#ffcc32"/>
    <path d="M447.7 452.6c-4 3.5-9.2 5.6-14.7 5.6-11.7 0-20.7-9.4-20.1-20.9.6-11.6 10.6-20.9 22.3-20.9 5.6 0 10.5 2.1 14.2 5.6l15.9 15.3-17.6 15.3zm-10.2-56.4c-26 0-44.2 21.9-44.2 45.9 0 20.1 13.5 35.8 38.7 35.8 26 0 44.2-21.8 44.2-45.8 0-20.3-13.4-35.9-38.7-35.9M190.1 398.6c4.1-1.8 10.1-5.9 12.4-10.3-.5.1-1.1.1-1.4.1-4.5 0-8.5-3.1-8.5-9.2 0-6.7 6.1-12.2 12.3-12.2 5.4 0 10.6 3.9 10.6 11.4 0 10.1-8.1 21.4-19.2 26.9l-6.2-6.7z" fill="#ffcc32"/>
  </g>
</svg>
